<?xml version="1.0" standalone="no"?>
<!DOCTYPE svg PUBLIC "-//W3C//DTD SVG 20010904//EN"
 "http://www.w3.org/TR/2001/REC-SVG-20010904/DTD/svg10.dtd">
<svg version="1.0" xmlns="http://www.w3.org/2000/svg"
 width="1000.000000pt" height="1000.000000pt" viewBox="0 0 1000.000000 1000.000000"
 preserveAspectRatio="xMidYMid meet">
<metadata>
Created by potrace 1.11, written by Peter Selinger 2001-2013
</metadata>
<g transform="translate(0.000000,1000.000000) scale(0.100000,-0.100000)"
fill="#000000" stroke="none">
<path d="M0 5000 l0 -5000 5000 0 5000 0 0 5000 0 5000 -5000 0 -5000 0 0
-5000z m6696 133 c928 -1600 1725 -2972 1771 -3051 l82 -142 -1100 2 -1101 3
-671 1157 c-370 637 -674 1158 -677 1158 -3 0 -307 -521 -677 -1158 l-672
-1157 -1099 -3 -1100 -2 782 1347 c799 1376 2372 4087 2621 4516 75 130 141
237 145 237 4 0 767 -1308 1696 -2907z"/>
</g>
</svg>
